<svg width="171" height="30" xmlns="http://www.w3.org/2000/svg" class="Header-module--logo--b7d5a" fill="none">

 <g>
  <title>Layer 1</title>
  <path id="svg_1" fill="#F04405" d="m4.56415,2.26228a21.5,21.5 0 0 1 19.2,0a1,1 0 0 1 -0.9,1.7a19.5,19.5 0 0 0 -17.4,0a1,1 0 0 1 -0.9,-1.7zm1.7,3a19.8,19.8 0 0 1 15.8,0c2.6,1.2 4.8,3 6.3,5a1,1 0 0 1 -1.6,1.2a14.2,14.2 0 0 0 -5.5,-4.5a17.5,17.5 0 0 0 -14.1,0c-2.3,1 -4.3,2.8 -5.5,4.5a1,1 0 0 1 -1.6,-1.1c1.4,-2 3.7,-4 6.2,-5.1zm7.8,1.7c5,0 9.4,2.5 11.6,6.2c1.2,2 1.6,4 1.6,5.6c0,2.8 -2.6,4.6 -5,4.6c-1.1,0 -2.3,-0.3 -3.3,-1c-1,-0.8 -1.7,-2 -1.7,-3.6c0,-0.9 -0.5,-1.5 -1,-2c-0.7,-0.4 -1.5,-0.6 -2.2,-0.6c-1.8,0 -3,1.3 -3,2.6c0,1 0.3,2.5 0.7,3.5c0.5,1 1.3,2.2 2,2.9c1.3,1.2 3,2.3 5.2,2.8a1,1 0 0 1 -0.4,1.9a12.6,12.6 0 0 1 -8.5,-6.8c-0.6,-1.2 -1,-3 -1,-4.3c0,-2.5 2.4,-4.5 5,-4.5c1,0 2.2,0.3 3.2,1s1.8,1.9 1.9,3.5c0,1 0.4,1.6 1,2c0.5,0.4 1.3,0.7 2.2,0.7c1.5,0 3,-1.2 3,-2.7c0,-1.3 -0.4,-3 -1.4,-4.6a11.4,11.4 0 0 0 -9.9,-5.2c-3.7,0 -7.7,1.8 -9.8,5.2a9,9 0 0 0 -1.2,4.9c0,2.4 0.4,3.4 1,5a1,1 0 1 1 -1.8,0.8c-0.7,-1.8 -1,-3 -1.2,-5.8a10.9,10.9 0 0 1 1.6,-5.9c2.4,-4.1 7.1,-6.1 11.4,-6.2zm-9,11.6c0,-4.4 4.4,-8 9,-8c4.7,0 9.2,3.2 9.2,8.3a1,1 0 1 1 -2,0c0,-3.7 -3.3,-6.3 -7.2,-6.3c-3.8,0 -7,2.9 -7,6c0,1.8 0.2,3.5 1.2,5.3a13.2,13.2 0 0 0 3,4a1,1 0 1 1 -1.2,1.5a15.2,15.2 0 0 1 -3.6,-4.6c-1,-2.1 -1.4,-4.1 -1.3,-6.2l-0.1,0zm9,-0.8c0.6,0 1,0.5 1,1a5.9,5.9 0 0 0 3,5.1c1.4,0.8 2.3,1 3.7,1a11.8,11.8 0 0 0 1.8,-0.1a1,1 0 1 1 0.3,1.9l-2,0.2c-1.8,0 -3.1,-0.4 -4.8,-1.3a7.8,7.8 0 0 1 -4,-6.8c0,-0.5 0.5,-1 1,-1z" clip-rule="evenodd" fill-rule="evenodd"/>
  <rect id="svg_5" height="24" width="139" y="128.5" x="179" fill="#ffffff"/>
  <text xml:space="preserve" text-anchor="start" font-family="'Faustina'" font-size="20" stroke-width="0" id="svg_7" y="93.5" x="315" fill="#ffffff">FINGERPRINT</text>
  <text xml:space="preserve" text-anchor="start" font-family="'Inter'" font-size="20" id="svg_10" y="21.5" x="42" fill="#ffffff">Fingerprint</text>
 </g>
</svg>